<?xml version="1.0" encoding="UTF-8"?>
<svg xmlns="http://www.w3.org/2000/svg" xmlns:xlink="http://www.w3.org/1999/xlink" width="854" height="480" viewBox="0 0 854 480">
<defs>
<g>
<g id="glyph-0-0">
<path d="M 4.039062 0 L 2.328125 0 L 2.328125 -0.234375 C 2.382812 -0.238281 2.441406 -0.242188 2.507812 -0.246094 C 2.574219 -0.25 2.628906 -0.261719 2.667969 -0.273438 C 2.734375 -0.296875 2.785156 -0.332031 2.816406 -0.386719 C 2.847656 -0.4375 2.863281 -0.507812 2.863281 -0.59375 L 2.863281 -2.378906 C 2.863281 -2.628906 2.804688 -2.816406 2.6875 -2.953125 C 2.570312 -3.085938 2.429688 -3.152344 2.261719 -3.152344 C 2.140625 -3.152344 2.027344 -3.132812 1.921875 -3.09375 C 1.816406 -3.054688 1.722656 -3.007812 1.640625 -2.953125 C 1.558594 -2.894531 1.5 -2.835938 1.457031 -2.777344 C 1.414062 -2.714844 1.382812 -2.667969 1.359375 -2.628906 L 1.359375 -0.628906 C 1.359375 -0.546875 1.375 -0.480469 1.40625 -0.429688 C 1.4375 -0.378906 1.484375 -0.339844 1.550781 -0.308594 C 1.601562 -0.285156 1.65625 -0.269531 1.710938 -0.257812 C 1.765625 -0.246094 1.828125 -0.238281 1.894531 -0.234375 L 1.894531 0 L 0.191406 0 L 0.191406 -0.234375 C 0.246094 -0.238281 0.300781 -0.242188 0.359375 -0.25 C 0.417969 -0.253906 0.464844 -0.261719 0.503906 -0.273438 C 0.570312 -0.296875 0.621094 -0.332031 0.652344 -0.386719 C 0.683594 -0.4375 0.703125 -0.507812 0.703125 -0.59375 L 0.703125 -4.644531 C 0.703125 -4.722656 0.683594 -4.804688 0.648438 -4.882812 C 0.609375 -4.964844 0.5625 -5.023438 0.503906 -5.0625 C 0.460938 -5.09375 0.386719 -5.117188 0.28125 -5.128906 C 0.171875 -5.140625 0.0859375 -5.152344 0.0195312 -5.15625 L 0.0195312 -5.382812 L 1.308594 -5.460938 L 1.359375 -5.40625 L 1.359375 -2.980469 L 1.371094 -2.980469 C 1.449219 -3.058594 1.519531 -3.125 1.582031 -3.1875 C 1.648438 -3.246094 1.730469 -3.308594 1.835938 -3.375 C 1.925781 -3.429688 2.03125 -3.476562 2.152344 -3.515625 C 2.273438 -3.554688 2.40625 -3.574219 2.558594 -3.574219 C 2.871094 -3.574219 3.109375 -3.472656 3.277344 -3.277344 C 3.441406 -3.082031 3.527344 -2.800781 3.527344 -2.429688 L 3.527344 -0.621094 C 3.527344 -0.539062 3.542969 -0.472656 3.570312 -0.421875 C 3.601562 -0.371094 3.648438 -0.332031 3.71875 -0.304688 C 3.773438 -0.28125 3.820312 -0.265625 3.867188 -0.253906 C 3.910156 -0.246094 3.96875 -0.238281 4.039062 -0.234375 Z "/>
</g>
</g>
</defs>
<g fill="rgb(69.019608%, 22.745098%, 18.039216%)" fill-opacity="1">
<use xlink:href="#glyph-0-0" x="30" y="26.623047"/>
</g>
</svg>
