<?xml version="1.0" encoding="UTF-8"?>
<svg xmlns="http://www.w3.org/2000/svg" xmlns:xlink="http://www.w3.org/1999/xlink" width="854" height="480" viewBox="0 0 854 480">
<defs>
<g>
<g id="glyph-0-0">
<path d="M 4.433594 0 L 2.59375 0 L 2.59375 -0.222656 C 2.753906 -0.230469 2.890625 -0.253906 2.996094 -0.285156 C 3.105469 -0.316406 3.15625 -0.355469 3.15625 -0.398438 C 3.15625 -0.417969 3.15625 -0.441406 3.152344 -0.46875 C 3.148438 -0.496094 3.140625 -0.519531 3.132812 -0.539062 L 2.765625 -1.53125 L 1.210938 -1.53125 C 1.152344 -1.386719 1.105469 -1.257812 1.070312 -1.152344 C 1.035156 -1.042969 1 -0.941406 0.972656 -0.851562 C 0.945312 -0.761719 0.925781 -0.691406 0.914062 -0.632812 C 0.90625 -0.578125 0.898438 -0.53125 0.898438 -0.496094 C 0.898438 -0.414062 0.964844 -0.347656 1.097656 -0.300781 C 1.226562 -0.257812 1.375 -0.230469 1.539062 -0.222656 L 1.539062 0 L -0.128906 0 L -0.128906 -0.222656 C -0.0742188 -0.226562 -0.0078125 -0.238281 0.0742188 -0.257812 C 0.15625 -0.277344 0.222656 -0.304688 0.273438 -0.335938 C 0.359375 -0.394531 0.421875 -0.453125 0.46875 -0.511719 C 0.515625 -0.574219 0.558594 -0.660156 0.601562 -0.765625 C 0.824219 -1.324219 1.070312 -1.945312 1.339844 -2.640625 C 1.605469 -3.332031 1.847656 -3.949219 2.054688 -4.488281 L 2.304688 -4.488281 L 3.78125 -0.671875 C 3.8125 -0.589844 3.847656 -0.523438 3.886719 -0.472656 C 3.925781 -0.425781 3.980469 -0.375 4.050781 -0.328125 C 4.101562 -0.296875 4.164062 -0.273438 4.238281 -0.253906 C 4.316406 -0.234375 4.382812 -0.222656 4.433594 -0.222656 L 4.433594 0 M 2.652344 -1.808594 L 1.980469 -3.527344 L 1.320312 -1.808594 Z "/>
</g>
<g id="glyph-0-1">
</g>
<g id="glyph-0-2">
<path d="M 3.628906 -2.128906 L 0.480469 -2.128906 L 0.480469 -2.519531 L 3.628906 -2.519531 L 3.628906 -2.128906 M 3.628906 -0.96875 L 0.480469 -0.96875 L 0.480469 -1.359375 L 3.628906 -1.359375 Z "/>
</g>
<g id="glyph-0-3">
<path d="M 4.460938 -5.316406 L 2.113281 0.394531 L 1.902344 0.394531 L 0.707031 -2.527344 L 0.132812 -2.527344 L 0.132812 -2.816406 L 1.257812 -2.816406 L 2.15625 -0.558594 L 4.097656 -5.316406 Z "/>
</g>
<g id="glyph-0-4">
<path d="M 2.1875 0.96875 L 0.523438 0.96875 L 0.523438 -4.738281 L 2.1875 -4.738281 L 2.1875 -4.453125 L 1.078125 -4.453125 L 1.078125 0.679688 L 2.1875 0.679688 Z "/>
</g>
<g id="glyph-0-5">
<path d="M 1.519531 1.140625 C 1.324219 1.140625 1.144531 1.113281 0.984375 1.066406 C 0.820312 1.015625 0.679688 0.949219 0.566406 0.867188 C 0.449219 0.785156 0.359375 0.6875 0.292969 0.582031 C 0.230469 0.472656 0.199219 0.359375 0.199219 0.246094 C 0.199219 0.144531 0.226562 0.0507812 0.273438 -0.03125 C 0.324219 -0.113281 0.40625 -0.152344 0.515625 -0.152344 C 0.640625 -0.152344 0.734375 -0.121094 0.800781 -0.0625 C 0.867188 0 0.898438 0.0703125 0.898438 0.148438 C 0.898438 0.214844 0.886719 0.300781 0.867188 0.402344 C 0.84375 0.503906 0.828125 0.578125 0.8125 0.621094 C 0.828125 0.640625 0.855469 0.664062 0.894531 0.695312 C 0.933594 0.726562 0.980469 0.753906 1.035156 0.78125 C 1.101562 0.8125 1.171875 0.835938 1.246094 0.855469 C 1.320312 0.875 1.421875 0.882812 1.554688 0.882812 C 1.679688 0.882812 1.800781 0.863281 1.914062 0.820312 C 2.03125 0.777344 2.132812 0.710938 2.222656 0.621094 C 2.3125 0.523438 2.382812 0.414062 2.433594 0.285156 C 2.484375 0.15625 2.511719 -0.0117188 2.511719 -0.21875 C 2.511719 -0.332031 2.5 -0.441406 2.476562 -0.550781 C 2.453125 -0.664062 2.40625 -0.757812 2.34375 -0.839844 C 2.277344 -0.921875 2.191406 -0.984375 2.078125 -1.027344 C 1.964844 -1.074219 1.824219 -1.09375 1.65625 -1.09375 L 1.246094 -1.09375 L 1.246094 -1.453125 L 1.515625 -1.453125 C 1.804688 -1.453125 2.011719 -1.53125 2.140625 -1.691406 C 2.265625 -1.847656 2.332031 -2.085938 2.332031 -2.40625 C 2.332031 -2.664062 2.269531 -2.863281 2.144531 -2.992188 C 2.023438 -3.125 1.847656 -3.191406 1.625 -3.191406 C 1.515625 -3.191406 1.425781 -3.179688 1.355469 -3.152344 C 1.285156 -3.125 1.230469 -3.101562 1.1875 -3.074219 C 1.132812 -3.046875 1.089844 -3.015625 1.058594 -2.980469 C 1.023438 -2.945312 1 -2.917969 0.984375 -2.902344 C 0.996094 -2.835938 1.015625 -2.753906 1.035156 -2.65625 C 1.054688 -2.558594 1.066406 -2.46875 1.066406 -2.378906 C 1.066406 -2.304688 1.035156 -2.234375 0.96875 -2.171875 C 0.902344 -2.113281 0.808594 -2.082031 0.679688 -2.082031 C 0.570312 -2.082031 0.488281 -2.121094 0.4375 -2.199219 C 0.386719 -2.277344 0.363281 -2.371094 0.363281 -2.472656 C 0.363281 -2.582031 0.390625 -2.691406 0.453125 -2.804688 C 0.511719 -2.917969 0.601562 -3.023438 0.71875 -3.121094 C 0.839844 -3.21875 0.984375 -3.296875 1.15625 -3.355469 C 1.324219 -3.417969 1.519531 -3.449219 1.742188 -3.449219 C 2 -3.449219 2.210938 -3.410156 2.378906 -3.332031 C 2.546875 -3.257812 2.679688 -3.164062 2.773438 -3.058594 C 2.867188 -2.953125 2.929688 -2.839844 2.96875 -2.722656 C 3.003906 -2.605469 3.019531 -2.507812 3.019531 -2.425781 C 3.019531 -2.320312 3.003906 -2.214844 2.976562 -2.109375 C 2.945312 -2.003906 2.898438 -1.910156 2.832031 -1.820312 C 2.761719 -1.722656 2.664062 -1.632812 2.542969 -1.550781 C 2.425781 -1.472656 2.273438 -1.40625 2.09375 -1.355469 L 2.09375 -1.308594 C 2.210938 -1.296875 2.335938 -1.269531 2.464844 -1.230469 C 2.597656 -1.1875 2.71875 -1.125 2.824219 -1.046875 C 2.933594 -0.960938 3.023438 -0.851562 3.09375 -0.714844 C 3.164062 -0.582031 3.199219 -0.410156 3.199219 -0.207031 C 3.199219 0.195312 3.039062 0.515625 2.71875 0.765625 C 2.398438 1.015625 2 1.140625 1.519531 1.140625 Z "/>
</g>
<g id="glyph-0-6">
<path d="M 3.355469 -1.4375 C 3.355469 -1.21875 3.316406 -1.019531 3.238281 -0.828125 C 3.160156 -0.640625 3.054688 -0.480469 2.921875 -0.347656 C 2.769531 -0.195312 2.601562 -0.0820312 2.417969 -0.0078125 C 2.234375 0.0625 2.042969 0.101562 1.84375 0.101562 C 1.613281 0.101562 1.402344 0.0585938 1.214844 -0.0273438 C 1.03125 -0.113281 0.871094 -0.234375 0.738281 -0.390625 C 0.605469 -0.546875 0.503906 -0.742188 0.429688 -0.96875 C 0.359375 -1.199219 0.320312 -1.453125 0.320312 -1.738281 C 0.320312 -2.480469 0.542969 -3.105469 0.984375 -3.617188 C 1.425781 -4.125 2.019531 -4.429688 2.761719 -4.53125 L 2.816406 -4.253906 L 2.535156 -4.203125 C 2.085938 -4.058594 1.734375 -3.832031 1.488281 -3.523438 C 1.242188 -3.214844 1.082031 -2.839844 1.011719 -2.402344 C 1.191406 -2.558594 1.367188 -2.667969 1.542969 -2.734375 C 1.714844 -2.796875 1.898438 -2.828125 2.09375 -2.828125 C 2.441406 -2.828125 2.738281 -2.695312 2.984375 -2.429688 C 3.230469 -2.164062 3.355469 -1.832031 3.355469 -1.4375 M 2.675781 -1.355469 C 2.675781 -1.691406 2.597656 -1.960938 2.445312 -2.164062 C 2.289062 -2.367188 2.082031 -2.472656 1.820312 -2.472656 C 1.664062 -2.472656 1.519531 -2.441406 1.386719 -2.382812 C 1.253906 -2.324219 1.125 -2.226562 1 -2.089844 C 0.996094 -2.066406 0.992188 -2.007812 0.988281 -1.917969 C 0.984375 -1.828125 0.984375 -1.753906 0.984375 -1.703125 C 0.984375 -1.214844 1.0625 -0.835938 1.222656 -0.558594 C 1.378906 -0.285156 1.589844 -0.148438 1.851562 -0.148438 C 2.097656 -0.148438 2.296875 -0.253906 2.449219 -0.46875 C 2.601562 -0.683594 2.675781 -0.980469 2.675781 -1.355469 Z "/>
</g>
<g id="glyph-0-7">
<path d="M 1.324219 -1.742188 C 1.324219 -1.628906 1.285156 -1.527344 1.199219 -1.445312 C 1.117188 -1.363281 1.015625 -1.324219 0.898438 -1.324219 C 0.78125 -1.324219 0.683594 -1.363281 0.597656 -1.445312 C 0.511719 -1.527344 0.472656 -1.628906 0.472656 -1.742188 C 0.472656 -1.859375 0.511719 -1.960938 0.597656 -2.046875 C 0.683594 -2.128906 0.78125 -2.171875 0.898438 -2.171875 C 1.015625 -2.171875 1.117188 -2.128906 1.199219 -2.046875 C 1.285156 -1.960938 1.324219 -1.859375 1.324219 -1.742188 Z "/>
</g>
<g id="glyph-0-8">
<path d="M 2.523438 0 L 0.421875 0 L 0.421875 -0.222656 C 0.484375 -0.226562 0.582031 -0.234375 0.710938 -0.246094 C 0.84375 -0.261719 0.9375 -0.277344 0.984375 -0.289062 C 1.050781 -0.3125 1.101562 -0.34375 1.132812 -0.390625 C 1.167969 -0.4375 1.183594 -0.507812 1.183594 -0.601562 L 1.183594 -2.792969 L 0.410156 -2.792969 L 0.410156 -3.054688 L 0.582031 -3.054688 C 0.804688 -3.054688 1.007812 -3.097656 1.183594 -3.179688 C 1.363281 -3.261719 1.488281 -3.351562 1.566406 -3.449219 L 1.824219 -3.449219 C 1.820312 -3.3125 1.8125 -3.152344 1.804688 -2.972656 C 1.800781 -2.792969 1.796875 -2.628906 1.796875 -2.488281 L 1.796875 -0.636719 C 1.796875 -0.5625 1.8125 -0.5 1.84375 -0.441406 C 1.878906 -0.382812 1.925781 -0.34375 1.984375 -0.316406 C 2.039062 -0.292969 2.125 -0.269531 2.25 -0.253906 C 2.371094 -0.234375 2.464844 -0.222656 2.523438 -0.222656 Z "/>
</g>
<g id="glyph-0-9">
<path d="M 3.203125 -2.914062 C 3.335938 -2.753906 3.4375 -2.566406 3.503906 -2.351562 C 3.566406 -2.136719 3.601562 -1.910156 3.601562 -1.675781 C 3.601562 -1.390625 3.558594 -1.140625 3.480469 -0.914062 C 3.398438 -0.691406 3.285156 -0.507812 3.144531 -0.359375 C 3 -0.207031 2.828125 -0.09375 2.625 -0.015625 C 2.425781 0.0625 2.203125 0.101562 1.960938 0.101562 C 1.691406 0.101562 1.453125 0.0546875 1.242188 -0.0351562 C 1.03125 -0.125 0.859375 -0.246094 0.730469 -0.402344 C 0.59375 -0.566406 0.492188 -0.753906 0.421875 -0.972656 C 0.355469 -1.1875 0.320312 -1.421875 0.320312 -1.675781 C 0.320312 -1.921875 0.355469 -2.152344 0.417969 -2.359375 C 0.484375 -2.566406 0.585938 -2.753906 0.726562 -2.921875 C 0.859375 -3.085938 1.03125 -3.214844 1.242188 -3.308594 C 1.453125 -3.402344 1.691406 -3.449219 1.960938 -3.449219 C 2.246094 -3.449219 2.492188 -3.398438 2.695312 -3.304688 C 2.898438 -3.207031 3.070312 -3.078125 3.203125 -2.914062 M 2.910156 -1.675781 C 2.910156 -2.171875 2.824219 -2.554688 2.65625 -2.828125 C 2.488281 -3.097656 2.257812 -3.234375 1.964844 -3.234375 C 1.671875 -3.234375 1.4375 -3.097656 1.265625 -2.828125 C 1.097656 -2.554688 1.011719 -2.171875 1.011719 -1.675781 C 1.011719 -1.207031 1.09375 -0.828125 1.253906 -0.542969 C 1.417969 -0.253906 1.652344 -0.113281 1.960938 -0.113281 C 2.265625 -0.113281 2.5 -0.253906 2.664062 -0.542969 C 2.828125 -0.828125 2.910156 -1.207031 2.910156 -1.675781 Z "/>
</g>
<g id="glyph-0-10">
<path d="M 1.871094 0.96875 L 0.210938 0.96875 L 0.210938 0.679688 L 1.316406 0.679688 L 1.316406 -4.453125 L 0.210938 -4.453125 L 0.210938 -4.738281 L 1.871094 -4.738281 Z "/>
</g>
<g id="glyph-0-11">
<path d="M 2.628906 -1.464844 C 2.765625 -1.355469 2.882812 -1.214844 2.972656 -1.046875 C 3.0625 -0.875 3.105469 -0.660156 3.105469 -0.40625 C 3.105469 0.0429688 2.953125 0.410156 2.648438 0.703125 C 2.34375 0.992188 1.953125 1.140625 1.484375 1.140625 C 1.121094 1.140625 0.8125 1.050781 0.5625 0.878906 C 0.308594 0.707031 0.183594 0.507812 0.183594 0.277344 C 0.183594 0.171875 0.210938 0.078125 0.261719 0 C 0.3125 -0.078125 0.394531 -0.117188 0.503906 -0.117188 C 0.628906 -0.117188 0.722656 -0.0859375 0.789062 -0.0195312 C 0.851562 0.046875 0.886719 0.117188 0.886719 0.195312 C 0.886719 0.261719 0.875 0.34375 0.851562 0.441406 C 0.828125 0.542969 0.8125 0.617188 0.796875 0.664062 C 0.816406 0.679688 0.84375 0.699219 0.878906 0.722656 C 0.917969 0.75 0.960938 0.773438 1.015625 0.796875 C 1.066406 0.820312 1.132812 0.839844 1.210938 0.855469 C 1.289062 0.875 1.382812 0.882812 1.484375 0.882812 C 1.617188 0.882812 1.742188 0.855469 1.863281 0.800781 C 1.980469 0.746094 2.082031 0.667969 2.160156 0.5625 C 2.25 0.445312 2.320312 0.3125 2.363281 0.164062 C 2.40625 0.015625 2.429688 -0.171875 2.429688 -0.402344 C 2.429688 -0.695312 2.347656 -0.9375 2.183594 -1.132812 C 2.023438 -1.324219 1.808594 -1.417969 1.542969 -1.417969 C 1.375 -1.417969 1.21875 -1.386719 1.074219 -1.324219 C 0.929688 -1.261719 0.800781 -1.160156 0.6875 -1.015625 L 0.476562 -1.09375 L 0.742188 -3.347656 L 2.976562 -3.347656 L 2.976562 -2.792969 L 0.996094 -2.792969 L 0.832031 -1.46875 C 0.925781 -1.535156 1.050781 -1.601562 1.203125 -1.667969 C 1.355469 -1.734375 1.523438 -1.765625 1.707031 -1.765625 C 1.859375 -1.765625 2.015625 -1.742188 2.179688 -1.695312 C 2.34375 -1.648438 2.492188 -1.570312 2.628906 -1.464844 Z "/>
</g>
<g id="glyph-0-12">
<path d="M 3.210938 -3.144531 L 0.988281 1.140625 L 0.597656 1.140625 L 2.6875 -2.824219 L 1.464844 -2.824219 C 1.28125 -2.824219 1.140625 -2.820312 1.039062 -2.816406 C 0.9375 -2.8125 0.84375 -2.792969 0.757812 -2.757812 C 0.695312 -2.730469 0.636719 -2.660156 0.585938 -2.550781 C 0.535156 -2.4375 0.496094 -2.296875 0.46875 -2.125 L 0.277344 -2.125 L 0.277344 -3.347656 L 3.210938 -3.347656 Z "/>
</g>
</g>
</defs>
<g fill="rgb(10.196078%, 10.196078%, 10.196078%)" fill-opacity="1">
<use xlink:href="#glyph-0-0" x="30" y="25.858398"/>
<use xlink:href="#glyph-0-1" x="34" y="25.858398"/>
<use xlink:href="#glyph-0-2" x="36" y="25.858398"/>
<use xlink:href="#glyph-0-1" x="40" y="25.858398"/>
<use xlink:href="#glyph-0-3" x="42" y="25.858398"/>
<use xlink:href="#glyph-0-4" x="46" y="25.858398"/>
<use xlink:href="#glyph-0-5" x="48" y="25.858398"/>
<use xlink:href="#glyph-0-6" x="52" y="25.858398"/>
<use xlink:href="#glyph-0-1" x="56" y="25.858398"/>
<use xlink:href="#glyph-0-7" x="58" y="25.858398"/>
<use xlink:href="#glyph-0-1" x="60" y="25.858398"/>
<use xlink:href="#glyph-0-8" x="62" y="25.858398"/>
<use xlink:href="#glyph-0-9" x="65" y="25.858398"/>
<use xlink:href="#glyph-0-1" x="69" y="25.858398"/>
<use xlink:href="#glyph-0-7" x="71" y="25.858398"/>
<use xlink:href="#glyph-0-1" x="73" y="25.858398"/>
<use xlink:href="#glyph-0-8" x="75" y="25.858398"/>
<use xlink:href="#glyph-0-9" x="78" y="25.858398"/>
<use xlink:href="#glyph-0-1" x="82" y="25.858398"/>
<use xlink:href="#glyph-0-7" x="84" y="25.858398"/>
<use xlink:href="#glyph-0-1" x="86" y="25.858398"/>
<use xlink:href="#glyph-0-8" x="88" y="25.858398"/>
<use xlink:href="#glyph-0-6" x="91" y="25.858398"/>
<use xlink:href="#glyph-0-10" x="95" y="25.858398"/>
<use xlink:href="#glyph-0-1" x="97" y="25.858398"/>
<use xlink:href="#glyph-0-1" x="99" y="25.858398"/>
<use xlink:href="#glyph-0-2" x="101" y="25.858398"/>
<use xlink:href="#glyph-0-1" x="105" y="25.858398"/>
<use xlink:href="#glyph-0-1" x="107" y="25.858398"/>
<use xlink:href="#glyph-0-3" x="109" y="25.858398"/>
<use xlink:href="#glyph-0-11" x="113" y="25.858398"/>
<use xlink:href="#glyph-0-12" x="116" y="25.858398"/>
<use xlink:href="#glyph-0-6" x="119" y="25.858398"/>
<use xlink:href="#glyph-0-9" x="123" y="25.858398"/>
<use xlink:href="#glyph-0-9" x="127" y="25.858398"/>
</g>
</svg>
